PathFileType	4	(X/Y/Z)	Walk1_0-155.trc
DataRate	CameraRate	NumFrames	NumMarkers	Units	OrigDataRate	OrigDataStartFrame	OrigNumFrames
30	30	6	22	m	30	38	155
Frame#	Time	Hip			RHip			RKnee			RAnkle			RBigToe			RSmallToe			RHeel			LHip			LKnee			LAnkle			LBigToe			LSmallToe			LHeel			Neck			Head			Nose			RShoulder			RElbow			RWrist			LShoulder			LElbow			LWrist		
		X1	Y1	Z1	X2	Y2	Z2	X3	Y3	Z3	X4	Y4	Z4	X5	Y5	Z5	X6	Y6	Z6	X7	Y7	Z7	X8	Y8	Z8	X9	Y9	Z9	X10	Y10	Z10	X11	Y11	Z11	X12	Y12	Z12	X13	Y13	Z13	X14	Y14	Z14	X15	Y15	Z15	X16	Y16	Z16	X17	Y17	Z17	X18	Y18	Z18	X19	Y19	Z19	X20	Y20	Z20	X21	Y21	Z21	X22	Y22	Z22
39	1.3	-2.0909792927591737	0.8283555204294	0.37812305330952345	-2.052886413189533	0.8366141917972149	0.47078225333336193	-1.986693854319534	0.46752543265602425	0.44127902552619747	-2.0110907392098234	0.09036292148325656	0.4357031872554224	0.0	0.0	0.0	0.0	0.0	0.0	0.0	0.0	0.0	-2.1272825799700286	0.8240681932953177	0.28601511109827943	-2.0763165849126604	0.4463461388907567	0.2769887796666249	-2.40285274527702	0.17893368371203816	0.292371717636584	0.0	0.0	0.0	0.0	0.0	0.0	0.0	0.0	0.0	-2.16148962537935	1.4152135716987562	0.3358116655971102	-1.9492661687802755	1.7161318457848025	0.3949631220579947	-1.9798015668625553	1.6393138052931724	0.3562332207300049	-2.1492749987555837	1.4146702231566606	0.5237736920604535	-2.1114395164380744	1.0853341075352916	0.6174256644531054	-2.106871663317379	0.8481311114261819	0.6379177910203886	-2.1776887251028922	1.4183193493350736	0.13828588452815382	-2.1436399640275314	1.0793451340942906	0.1579136194766187	-2.0789240996644702	0.8549069714190748	0.11545426269492862
40	1.3333333333333333	-2.0699273051667855	0.8385395515653423	0.3762855118756014	-2.039750319134124	0.8460582908718716	0.46999355215870203	-1.9716311570456193	0.4764050680412551	0.467639942280721	-2.014116419079363	0.09002059961097769	0.43799739988126835	0.0	0.0	0.0	0.0	0.0	0.0	0.0	0.0	0.0	-2.0979893956762594	0.8347398477095574	0.2827196079950796	-2.0001915981935356	0.46615390351939956	0.2748093697741585	-2.324853737694399	0.22885416570406358	0.27442938667976685	0.0	0.0	0.0	0.0	0.0	0.0	0.0	0.0	0.0	-2.1360426279934077	1.421562339430149	0.3403963035815853	-1.9292506841361818	1.720295109953431	0.3988679691332214	-1.9484870239627643	1.660307617063827	0.35450729070467374	-2.1222019090486177	1.4190364074306825	0.5246635199307217	-2.0782381966761414	1.0881743432256896	0.6197180927231196	-2.048495572813131	0.8484383980211186	0.6348510035179799	-2.1535527283530453	1.4266769851183676	0.14684122469393704	-2.124363987941585	1.0902286383686115	0.1574772367587512	-2.0566355425896816	0.8628929371362133	0.12270633631234694
41	1.3666666666666667	-2.045099747811939	0.8332459599180336	0.3818935681095536	-2.027944939165147	0.8354717306264442	0.4766399584144202	-1.9969752901381754	0.4874604588366337	0.44511158492373737	-2.0169161887810043	0.08922416646017559	0.4410052926520116	0.0	0.0	0.0	0.0	0.0	0.0	0.0	0.0	0.0	-2.059367721651562	0.8348824586914961	0.28767917675165167	-1.9333901314322992	0.4824402453913457	0.27527049679880367	-2.2631924849263196	0.20971126737135862	0.31318735182119645	0.0	0.0	0.0	0.0	0.0	0.0	0.0	0.0	0.0	-2.107622715431718	1.426520069316111	0.3494657851118786	-1.9010967336229483	1.7283420217287824	0.4025422387969653	-1.9218100611527429	1.6634530628337807	0.353524954544169	-2.09489139135309	1.4217949380671064	0.5337847014162858	-2.041256857098927	1.1050198679322998	0.613182487653982	-1.994350709642592	0.8562331312483527	0.6405018788382103	-2.124398868408498	1.433561939065754	0.15598935884542636	-2.1061106863635466	1.0928307787524263	0.16661692765462682	-2.0369480196104575	0.8711754230642996	0.12587510108635497
42	1.4	-2.023772550098663	0.8294139039568088	0.3766985479218878	-2.008363648633732	0.8299819084271927	0.47555201503681405	-1.9992836860849257	0.4767865979627951	0.44664003333256896	-2.016318578847731	0.09452316349814896	0.43885534049324704	0.0	0.0	0.0	0.0	0.0	0.0	0.0	0.0	0.0	-2.0358533650547948	0.8329597421024585	0.27846348896432266	-1.8676200362851432	0.49755722688561776	0.27807761141402354	-2.1788447972415574	0.22600512568028888	0.3018544033232855	0.0	0.0	0.0	0.0	0.0	0.0	0.0	0.0	0.0	-2.0804308805737826	1.4324374659836407	0.35505896376114815	-1.8693727263153497	1.731625435824254	0.39984758361989997	-1.897106209624854	1.6507054942888117	0.36563362010493716	-2.0646196497079705	1.4290058658722447	0.5440875341620633	-2.002262691055879	1.1109372374316953	0.6255089546171277	-1.927191769115949	0.8667173659595632	0.6496904994628951	-2.1012705073881826	1.438308438483329	0.15579114590526993	-2.084665129246241	1.0966738367640039	0.16626820833318745	-2.012953995342016	0.8754265487795041	0.126698398533018
43	1.4333333333333333	-2.003689065073335	0.8340501563915159	0.3835366787613372	-1.9940757171719	0.8331356320436132	0.4834354706623717	-1.9962957779869828	0.47466702359491125	0.45009876400476484	-2.0335021500173744	0.08690080287997094	0.4447337757561174	0.0	0.0	0.0	0.0	0.0	0.0	0.0	0.0	0.0	-2.009474183141656	0.8393358956496166	0.28355870474529166	-1.8075864796128862	0.518897758087738	0.2827831041976699	-2.1175188357875965	0.21359568668156179	0.3144552249870063	0.0	0.0	0.0	0.0	0.0	0.0	0.0	0.0	0.0	-2.0546593026581417	1.4356076838889635	0.35651065793173403	-1.8412104461453511	1.740171482268765	0.40247827433016364	-1.8688307515826421	1.6626580489972023	0.3673080081896641	-2.0359880888836908	1.438222786259727	0.5478976275426631	-1.9633903536041069	1.1173785157784297	0.6309127462540024	-1.8659036219704344	0.8761558720382685	0.6527332172659666	-2.079541181415801	1.434893549783744	0.15435660881034752	-2.0595255297301533	1.1011514551659134	0.16193361886424817	-1.9940608479860629	0.8737662358886915	0.12743460451432073
44	1.4666666666666666	-1.9765120230430357	0.8403400166942072	0.3824135467595663	-1.9760393181599067	0.8365391709296653	0.48386124037901096	-1.994763753679316	0.4722054661604975	0.45668943580399035	-2.021636393085571	0.09647299957200053	0.4460362725434606	0.0	0.0	0.0	0.0	0.0	0.0	0.0	0.0	0.0	-1.9738931896080232	0.8475969644884775	0.2806405445062137	-1.7549942024870029	0.5387701524815061	0.2907546551303121	-2.021329858003547	0.2155900046484115	0.3129504220548561	0.0	0.0	0.0	0.0	0.0	0.0	0.0	0.0	0.0	-2.0274327911258823	1.4361815599823502	0.3558846654522891	-1.8565830518979376	1.7434191308531377	0.42546826020316286	-1.8339268127825983	1.6733251295573743	0.35510666761071225	-2.0115660374330266	1.4377179596880758	0.546663590660243	-1.9253953262352002	1.1237303421538036	0.6325346642242614	-1.8096792868029283	0.8857678462509113	0.6601503058234129	-2.050572472937589	1.4363309712123733	0.15430040605713677	-2.04011064447467	1.1315286615502107	0.1157032339254495	-1.9745564458144615	0.8751572999686612	0.12472458988028247
